<svg width="56" height="56" fill="none" xmlns="http://www.w3.org/2000/svg"><path d="M55.454 53.982c-.17-.055-12.636-4.072-31.284-3.278l-1.58-6.237a4.553 4.553 0 001.92-1.708 4.52 4.52 0 003.835 2.14 4.518 4.518 0 003.835-2.14 4.52 4.52 0 003.835 2.14 4.518 4.518 0 003.835-2.14 4.52 4.52 0 003.835 2.14 4.518 4.518 0 003.835-2.14 4.52 4.52 0 003.835 2.14c2.495 0 4.526-2.036 4.526-4.54a.691.691 0 10-1.383 0 3.154 3.154 0 01-3.143 3.158 3.155 3.155 0 01-3.144-3.158.691.691 0 10-1.383 0 3.154 3.154 0 01-3.143 3.158 3.155 3.155 0 01-3.144-3.158.691.691 0 10-1.383 0 3.154 3.154 0 01-3.143 3.158 3.155 3.155 0 01-3.144-3.158.691.691 0 10-1.382 0 3.154 3.154 0 01-3.144 3.158 3.155 3.155 0 01-3.144-3.158.691.691 0 10-1.382 0 3.15 3.15 0 01-1.58 2.723l-3.626-14.315c2.146-.445 4.798-.492 6.466 1.287a.69.69 0 001.173-.298c.634-2.422 2.813-4.44 5.552-5.139a8.543 8.543 0 011.993-.258.693.693 0 00.64-.93C31.8 16.215 23.521 12.344 14.98 14.197l-.365-1.442a.692.692 0 10-1.341.338l.362 1.43C5.207 16.95-.27 24.347.828 31.968a.691.691 0 00.997.517 8.576 8.576 0 011.753-.666c2.8-.715 5.709.048 7.409 1.945a.69.69 0 001.188-.3c.583-2.447 2.966-3.709 5.1-4.357l3.643 14.383c-.081.007-.16.025-.242.025a3.155 3.155 0 01-3.144-3.158.691.691 0 10-1.383 0 3.154 3.154 0 01-3.143 3.158 3.155 3.155 0 01-3.144-3.158.691.691 0 10-1.383 0 3.154 3.154 0 01-3.143 3.158 3.155 3.155 0 01-3.144-3.158.691.691 0 10-1.382 0c0 2.504 2.03 4.54 4.526 4.54a4.52 4.52 0 003.835-2.14 4.52 4.52 0 003.835 2.14 4.52 4.52 0 003.835-2.14 4.52 4.52 0 003.835 2.14c.2 0 .395-.016.587-.042l1.497 5.911a115.568 115.568 0 00-21.379 3.2.692.692 0 00.332 1.343c30.206-7.46 53.078-.09 53.306-.014a.692.692 0 00.435-1.314zM32.782 23.038c-.449.05-.89.13-1.32.24-2.36.602-4.312 2.002-5.512 3.84a25.537 25.537 0 00-1.786-4.561c-1.772-3.467-4.176-5.95-7.04-7.316 6.75-.738 13.174 2.388 15.658 7.797zM5.661 30.174c-.802 0-1.618.1-2.425.306-.38.097-.76.22-1.138.369-.41-6.05 3.714-11.803 10.116-14.372-1.876 2.575-2.812 5.915-2.719 9.82a25.53 25.53 0 00.641 5.04c-1.314-.755-2.865-1.163-4.475-1.163zm5.91 1.202c-.725-2.984-1.977-10.779 3.075-15.58 6.753 1.807 9.358 9.345 10.125 12.273-1.799-1.06-4.236-1.24-7.171-.49-2.894.74-4.938 2.037-6.03 3.797zm38.54-20.03C50.11 8.399 47.72 6 44.782 6c-2.937 0-5.327 2.398-5.327 5.345 0 2.947 2.39 5.344 5.327 5.344s5.327-2.398 5.327-5.344zm-5.328 3.961c-2.175 0-3.944-1.776-3.944-3.961 0-2.185 1.77-3.962 3.944-3.962 2.175 0 3.945 1.777 3.945 3.962 0 2.185-1.77 3.961-3.945 3.961zm.692-12.356V.721a.691.691 0 10-1.383 0v2.23a.691.691 0 101.383 0zm2.71 1.418a.693.693 0 00.632-.412l.903-2.036a.691.691 0 10-1.263-.56l-.904 2.036a.69.69 0 00.631.972zm3.276 1.873l1.651-1.492a.691.691 0 00-.927-1.026l-1.65 1.492a.691.691 0 10.926 1.026zm1.49 3.167l2.112-.69a.691.691 0 10-.428-1.314l-2.113.69a.692.692 0 10.428 1.314zm2.43 2.36l-2.209-.234a.698.698 0 00-.76.615.69.69 0 00.615.76l2.209.234a.692.692 0 00.145-1.375zm-1.433 5.58a.69.69 0 00.347-1.29l-1.924-1.115a.69.69 0 10-.693 1.196l1.924 1.115a.682.682 0 00.346.093zm-3.504 2.996a.69.69 0 00.965.156.692.692 0 00.155-.965l-1.306-1.804a.692.692 0 00-1.12.81l1.306 1.803zm-4.066-1.465a.69.69 0 00-.533.82l.462 2.18a.692.692 0 001.353-.286l-.462-2.18a.69.69 0 00-.82-.534zm-4.01.533l-.461 2.18a.692.692 0 001.353.287l.462-2.18a.692.692 0 00-1.354-.287zm-3.806 1.219a.69.69 0 00.56-.287l1.306-1.803a.69.69 0 10-1.12-.81l-1.306 1.804a.69.69 0 00.56 1.096zm-2.943-3.284c.117 0 .237-.03.345-.093l1.924-1.114a.691.691 0 10-.694-1.196l-1.923 1.114a.69.69 0 00.348 1.29zM33.57 12.53a.692.692 0 00.76.614l2.209-.233a.692.692 0 00-.145-1.376l-2.21.234a.691.691 0 00-.614.76zm.491-4.682a.691.691 0 00.443.871l2.113.69a.693.693 0 00.872-.442.691.691 0 00-.443-.872l-2.113-.69a.69.69 0 00-.872.443zM38.57 6.42a.692.692 0 00.464-1.204l-1.651-1.493a.692.692 0 00-.927 1.026l1.65 1.492a.69.69 0 00.464.179zm2.814-2.052a.69.69 0 00.632-.971L41.11 1.36a.69.69 0 10-1.264.56l.904 2.036a.691.691 0 00.632.412z" fill="#7681A0"/></svg>