<svg width="47" height="56" fill="none" xmlns="http://www.w3.org/2000/svg"><path d="M23.734 23.904c-4.346 0-7.94-3.51-7.94-7.94 0-4.346 3.51-7.94 7.94-7.94 4.347 0 7.94 3.51 7.94 7.94-.083 4.43-3.593 7.94-7.94 7.94zm0-13.456a5.511 5.511 0 00-5.516 5.516 5.511 5.511 0 005.516 5.517 5.511 5.511 0 005.517-5.517c0-3.009-2.508-5.516-5.517-5.516z" fill="#7681A0" stroke="#fff"/><path d="M23.734 45.05a1.28 1.28 0 01-.836-.333c-.668-.67-14.543-15.547-14.543-28.92C8.355 7.355 15.21.418 23.735.418s15.378 6.937 15.378 15.38c0 13.289-13.958 28.25-14.543 28.835-.25.25-.501.418-.836.418zm0-42.292c-7.188 0-13.039 5.851-13.039 13.04 0 9.945 8.777 21.313 12.538 25.742.083.168.25.168.418.168a.639.639 0 00.418-.168c3.76-4.43 12.537-15.797 12.537-25.743.167-7.188-5.684-13.039-12.872-13.039z" fill="#7681A0" stroke="#fff"/><path d="M23.734 50.316c-6.52 0-13.54-2.256-13.54-6.435 0-1.087.585-3.176 4.263-4.764.167-.084.334-.084.501-.084.502 0 .92.25 1.087.669.167.25.167.585 0 .919-.084.334-.335.502-.585.669-1.756.752-2.842 1.755-2.842 2.59 0 1.923 4.764 4.096 11.116 4.096 6.353 0 11.117-2.173 11.117-4.095 0-.836-1.087-1.84-2.842-2.591-.25-.167-.502-.335-.669-.669a1.717 1.717 0 010-.92c.168-.417.585-.668 1.087-.668.167 0 .334 0 .501.084 3.678 1.588 4.263 3.677 4.263 4.764 0 4.179-6.937 6.435-13.457 6.435z" fill="#7681A0" stroke="#fff"/><path d="M23.734 55.582c-12.704 0-22.316-4.68-22.316-10.866 0-3.76 3.594-7.02 9.779-9.026.084 0 .25-.084.334-.084.502 0 1.003.334 1.087.836.167.585-.167 1.254-.752 1.504-5.099 1.672-8.191 4.18-8.191 6.77 0 4.096 8.023 8.526 19.976 8.526 11.952 0 19.976-4.43 19.976-8.526 0-2.59-3.01-5.098-8.024-6.77-.334-.083-.502-.334-.669-.585-.167-.25-.167-.585-.083-.92.167-.5.585-.835 1.086-.835.168 0 .251 0 .418.084 6.102 2.006 9.612 5.265 9.612 9.026.084 6.185-9.528 10.866-22.233 10.866z" fill="#7681A0" stroke="#fff"/></svg>