<svg width="76" height="56" fill="none" xmlns="http://www.w3.org/2000/svg"><path d="M68.75 38.388c-10.568 10.556-18.417-.168-24.36 5.768-.827.826-2.411-1.806-3.266-2.646-.77-.77-3.406-2.52-2.663-3.262 6.181-6.174-4.906-13.65 5.789-24.318 6.77-6.762 17.73-6.762 24.5 0 6.77 6.748 6.77 17.696 0 24.458z" fill="#fff"/><path d="M44.026 44.997h-.07c-.912-.056-1.767-1.12-2.594-2.156a16.105 16.105 0 00-.715-.854c-.154-.154-.448-.392-.756-.644-1.29-1.064-2.2-1.876-2.243-2.73a1.147 1.147 0 01.322-.854c2.411-2.408 1.92-4.998 1.304-8.274-.827-4.34-1.836-9.73 4.485-16.044 7.022-7.014 18.446-7.014 25.468 0 7.022 7.014 7.022 18.424 0 25.438-6.293 6.286-11.788 5.306-16.203 4.522-3.28-.588-5.859-1.036-8.157 1.246-.239.224-.52.35-.841.35zm-4.99-6.37c.21.42 1.261 1.288 1.724 1.666.35.28.644.532.84.728.239.238.52.588.814.966.392.49 1.163 1.456 1.541 1.624 2.79-2.73 5.943-2.156 9.293-1.568 4.317.77 9.223 1.638 15.012-4.144 6.49-6.482 6.49-17.024 0-23.506-6.49-6.482-17.044-6.482-23.534 0-5.816 5.81-4.905 10.598-4.106 14.84.63 3.346 1.233 6.496-1.584 9.394z" fill="#7681A0"/><path d="M52.73 35.91L36.246 52.373a2.117 2.117 0 01-2.971 0l-3.028-3.025a2.11 2.11 0 010-2.967l16.484-16.464 5.999 5.992z" fill="#fff"/><path d="M34.76 53.494a3.216 3.216 0 01-2.284-.938l-2.397-2.394a3.206 3.206 0 01-.939-2.282c0-.868.337-1.666.94-2.282l16.65-16.632 6.967 6.958-16.652 16.618a3.23 3.23 0 01-2.284.952zM46.73 30.87L31.033 46.55c-.35.35-.546.826-.546 1.316 0 .504.196.966.546 1.316l2.397 2.394a1.88 1.88 0 002.65 0l15.698-15.68-5.046-5.026z" fill="#7681A0"/><path d="M49.772 37.114c2.346 0 4.247-1.9 4.247-4.242a4.244 4.244 0 00-4.247-4.242 4.245 4.245 0 00-4.247 4.242 4.245 4.245 0 004.247 4.242z" fill="#fff"/><path d="M49.772 37.785a4.89 4.89 0 01-3.476-1.441 4.904 4.904 0 01-1.444-3.473 4.88 4.88 0 011.444-3.472 4.936 4.936 0 016.966 0 4.922 4.922 0 010 6.959 4.934 4.934 0 01-3.49 1.428zm0-8.47c-.91 0-1.822.35-2.523 1.036a3.547 3.547 0 00-1.051 2.52 3.49 3.49 0 001.051 2.52 3.555 3.555 0 002.523 1.05c.953 0 1.85-.364 2.523-1.05a3.571 3.571 0 000-5.04 3.544 3.544 0 00-2.523-1.036z" fill="#7681A0"/><path d="M69.17 37.968c7.191-7.182 7.542-18.48.772-25.242-6.77-6.762-18.081-6.412-25.272.77-2.663 2.66-4.387 5.894-5.158 9.254L59.92 43.12c3.35-.77 6.588-2.492 9.25-5.152z" fill="#fff"/><path d="M59.696 43.863l-.267-.266L38.77 22.96l.084-.364c.827-3.598 2.678-6.916 5.34-9.576 7.443-7.434 19.217-7.784 26.24-.77 7.021 7.014 6.671 18.76-.772 26.208-2.677 2.674-5.985 4.508-9.587 5.334l-.378.07zM40.269 22.527L60.13 42.379c3.21-.812 6.167-2.492 8.578-4.886 6.91-6.902 7.26-17.808.771-24.29-6.503-6.482-17.408-6.146-24.318.77-2.397 2.394-4.093 5.348-4.892 8.554zm7.079 13.675l-.961-.96-9.366 9.355.961.96 9.366-9.355z" fill="#7681A0"/><path d="M38.727 45.822l-2.887 2.884a1.355 1.355 0 01-1.92 0 1.35 1.35 0 010-1.918l2.887-2.884a1.355 1.355 0 011.92 0c.519.532.519 1.4 0 1.918z" fill="#7681A0"/><path d="M34.887 49.784a2.029 2.029 0 01-1.444-.602 2.035 2.035 0 010-2.884l2.888-2.884a2.04 2.04 0 112.887 2.884l-2.887 2.884a2.029 2.029 0 01-1.444.602zm2.873-5.6c-.168 0-.35.07-.476.196l-2.888 2.884a.684.684 0 00.967.966l2.888-2.884a.684.684 0 000-.966.726.726 0 00-.49-.196zm5.985-20.986a.672.672 0 100-1.345.672.672 0 000 1.345zm2.873 2.212a.684.684 0 11-.966-.966.684.684 0 01.966.966zm2.412 2.394a.684.684 0 110-.966c.266.28.266.7 0 .966zm2.396 2.408a.684.684 0 11-.966-.966.684.684 0 01.966.966zm2.397 2.394a.684.684 0 11-.966-.966.684.684 0 01.966.966zM56.234 35a.684.684 0 110-.966c.266.28.266.7 0 .967zm1.92 2.59a.672.672 0 100-1.345.672.672 0 000 1.345zm2.887 2.212a.684.684 0 11-.966-.966.684.684 0 01.966.966zM44.824 20.005a.684.684 0 110-.966c.267.28.267.7 0 .966zm2.397 2.409a.684.684 0 11-.966-.966.684.684 0 01.966.966zm2.411 2.394a.684.684 0 110-.966c.252.266.252.7 0 .966zm1.92 2.59a.672.672 0 10.001-1.345.672.672 0 000 1.345zm2.398 2.393a.672.672 0 100-1.345.672.672 0 000 1.345zm2.886 2.213a.684.684 0 11-.966-.966.684.684 0 01.966.966zm1.921 2.59a.672.672 0 100-1.345.672.672 0 000 1.345zm2.873 2.211a.684.684 0 11-.966-.966.684.684 0 01.966.966zm1.934 2.592a.672.672 0 10.001-1.345.672.672 0 000 1.345zM47.347 19.6a.672.672 0 10.001-1.344.672.672 0 000 1.344zm-1.92-2.59a.684.684 0 11-.966-.966.684.684 0 01.966.967zm4.793 4.801a.684.684 0 11-.966-.966.684.684 0 01.967.966zm1.935 2.591a.672.672 0 100-1.345.672.672 0 000 1.345zm2.873 2.198a.684.684 0 110-.966c.267.28.267.714 0 .966zm1.921 2.604a.672.672 0 100-1.345.672.672 0 000 1.345zm2.411 2.394a.672.672 0 100-1.345.672.672 0 000 1.345zm2.873 2.212a.684.684 0 11-.966-.966.684.684 0 01.966.966zm2.411 2.395a.684.684 0 11-.966-.966.684.684 0 01.966.966zM48.665 16.17a.684.684 0 11-.966-.966.684.684 0 01.966.966zm2.397 2.394a.684.684 0 110-.966c.266.28.266.7 0 .966zm2.411 2.408a.684.684 0 11-.966-.966.684.684 0 01.966.966zm2.397 2.393a.684.684 0 11-.966-.966.684.684 0 01.965.966zm1.92 2.592a.672.672 0 100-1.345.672.672 0 000 1.345zm2.887 2.211a.684.684 0 11-.966-.966.684.684 0 01.966.966zm1.92 2.59a.672.672 0 10.001-1.345.672.672 0 000 1.345zm2.887 2.212a.684.684 0 11-.966-.966.684.684 0 01.966.967zM51.188 15.764a.672.672 0 100-1.345.672.672 0 000 1.345zm-1.92-2.59a.684.684 0 11-.966-.966.684.684 0 01.966.966zm4.807 4.788a.684.684 0 110-.966c.267.28.267.714 0 .966zm1.92 2.605a.672.672 0 10.001-1.345.672.672 0 000 1.345zm2.874 2.198a.684.684 0 110-.966c.266.28.266.7 0 .966zm2.411 2.407a.684.684 0 11-.966-.966.684.684 0 01.966.966zm2.396 2.393a.684.684 0 11-.966-.966.684.684 0 01.966.966zm1.921 2.591a.672.672 0 100-1.345.672.672 0 000 1.345zm2.411 2.394a.672.672 0 100-1.345.672.672 0 000 1.345zM52.267 12.572a.684.684 0 11-.966-.966.684.684 0 01.966.966zm2.397 2.394a.684.684 0 110-.966c.266.28.266.7 0 .966zm2.411 2.409a.684.684 0 11-.966-.966.684.684 0 01.966.966zm1.92 2.589a.672.672 0 100-1.345.672.672 0 000 1.345zm2.397 2.394a.672.672 0 100-1.345.672.672 0 000 1.345zm2.888 2.212a.684.684 0 11-.966-.966.684.684 0 01.965.967zm2.396 2.394a.684.684 0 110-.966c.266.28.266.7 0 .966zm2.411 2.408a.684.684 0 11-.966-.966.684.684 0 01.966.966zm-1.682 6.188a.672.672 0 100-1.345.672.672 0 000 1.345zm3.602-3.598a.672.672 0 100-1.345.672.672 0 000 1.345zM58.28 11.368a.684.684 0 110-.966c.252.28.252.7 0 .966zm1.92 2.59a.672.672 0 10.001-1.345.672.672 0 000 1.345zm2.874 2.212a.684.684 0 11-.966-.966.684.684 0 01.966.966zm2.41 2.394a.684.684 0 110-.966c.267.28.267.7 0 .966zm2.398 2.408a.684.684 0 11-.966-.966.684.684 0 01.966.966zm2.396 2.393a.684.684 0 11-.966-.966.684.684 0 01.966.966zm-3.602-10.793a.684.684 0 11-.966-.966.684.684 0 01.966.966zm2.411 2.394a.684.684 0 110-.966c.266.28.266.7 0 .966zm1.92 2.59a.672.672 0 100-1.344.672.672 0 000 1.344zm1.191 8.401a.672.672 0 10.001-1.345.672.672 0 000 1.345zM54.79 12.166a.672.672 0 100-1.345.672.672 0 000 1.345zm2.888 2.198a.684.684 0 110-.966c.266.28.266.714 0 .966zm2.396 2.407a.684.684 0 11-.966-.966.684.684 0 01.966.966zm2.397 2.395a.684.684 0 110-.966c.266.28.266.7 0 .966zm2.411 2.409a.684.684 0 11-.966-.966.684.684 0 01.966.966zm1.92 2.589a.672.672 0 10.001-1.345.672.672 0 000 1.345zm2.397 2.393a.672.672 0 100-1.344.672.672 0 000 1.344zM58.869 8.372a.684.684 0 11-.966-.966.684.684 0 01.966.966zm2.411 2.394a.684.684 0 110-.966c.266.28.266.7 0 .966zm2.396 2.408a.684.684 0 11-.966-.966.684.684 0 01.966.966zm1.921 2.59a.672.672 0 100-1.345.672.672 0 000 1.345zm2.887 2.198a.684.684 0 110-.966c.266.28.266.714 0 .966zm2.396 2.408a.684.684 0 11-.966-.966.684.684 0 01.967.967zm2.412 2.395a.684.684 0 110-.966c.266.28.266.7 0 .966zm-1.206 6.005a.684.684 0 11-.966-.966.684.684 0 01.966.966z" fill="#7681A0"/><path d="M31.229 14.56c10.568 10.556-.169 18.396 5.774 24.332.827.826-1.808 2.408-2.649 3.262-.77.77-2.523 3.402-3.266 2.66-6.18-6.174-13.666 4.9-24.346-5.782-6.784-6.748-6.784-17.71-.014-24.472 6.77-6.748 17.73-6.748 24.5 0z" fill="#fff"/><path d="M31.397 45.626c-.295 0-.575-.112-.8-.336-2.41-2.408-5.003-1.918-8.283-1.302-4.345.826-9.741 1.834-16.063-4.48A17.821 17.821 0 01.967 26.796c0-4.802 1.878-9.324 5.27-12.712 3.406-3.402 7.934-5.264 12.741-5.264 4.808 0 9.335 1.876 12.727 5.264 6.293 6.286 5.312 11.774 4.527 16.184-.588 3.276-1.037 5.852 1.248 8.148.252.252.378.574.35.91-.056.91-1.121 1.764-2.158 2.59a15.4 15.4 0 00-.855.714c-.155.154-.393.448-.645.756-1.065 1.288-1.878 2.198-2.733 2.24h-.042zm-5.2-3.5c1.836 0 3.588.49 5.27 2.114.42-.21 1.29-1.26 1.668-1.722.28-.336.532-.644.729-.84.238-.238.588-.518.967-.812.49-.392 1.457-1.162 1.625-1.54-2.733-2.772-2.158-5.936-1.57-9.282.772-4.312 1.64-9.212-4.148-14.994a16.573 16.573 0 00-11.774-4.872c-4.443 0-8.62 1.736-11.774 4.872-3.153 3.136-4.877 7.322-4.877 11.76S4.05 35.42 7.19 38.57c5.817 5.81 10.61 4.9 14.858 4.102 1.43-.28 2.803-.546 4.149-.546z" fill="#7681A0"/><path d="M46.87 45.78l-8.942-8.932-8.886 8.876 8.942 8.932A4.552 4.552 0 0041.222 56a4.504 4.504 0 003.238-1.344l2.397-2.394a4.541 4.541 0 001.345-3.234 4.48 4.48 0 00-1.331-3.248z" fill="#fff"/><path d="M28.748 30.562L45.23 47.026a2.11 2.11 0 010 2.968l-3.028 3.024a2.117 2.117 0 01-2.971 0L22.749 36.554l5.999-5.992z" fill="#fff"/><path d="M40.718 54.138a3.237 3.237 0 01-2.285-.938L21.782 36.554l6.966-6.958 16.651 16.632c.603.602.94 1.414.94 2.282a3.23 3.23 0 01-.94 2.282l-2.397 2.394a3.192 3.192 0 01-2.284.952zM23.702 36.554L39.4 52.234c.35.35.827.546 1.318.546.504 0 .967-.196 1.317-.546l2.397-2.394c.35-.35.547-.826.547-1.316a1.84 1.84 0 00-.547-1.316l-15.698-15.68-5.032 5.026z" fill="#7681A0"/><path d="M25.706 37.757a4.244 4.244 0 004.247-4.242 4.244 4.244 0 00-4.247-4.242 4.244 4.244 0 00-4.247 4.242 4.244 4.244 0 004.247 4.242z" fill="#fff"/><path d="M25.706 38.43a4.916 4.916 0 01-3.49-1.441 4.904 4.904 0 01-1.444-3.472 4.88 4.88 0 011.444-3.473 4.915 4.915 0 013.476-1.442c1.303 0 2.551.518 3.476 1.442a4.904 4.904 0 011.444 3.473 4.88 4.88 0 01-1.444 3.472 4.805 4.805 0 01-3.462 1.442zm0-8.47c-.953 0-1.85.364-2.523 1.05a3.547 3.547 0 00-1.051 2.52 3.49 3.49 0 001.051 2.52 3.581 3.581 0 005.046 0 3.547 3.547 0 001.051-2.52 3.49 3.49 0 00-1.051-2.52 3.498 3.498 0 00-2.523-1.05zM37.41 8.988a4.502 4.502 0 01-4.5-4.494A4.502 4.502 0 0137.41 0a4.502 4.502 0 014.499 4.494 4.502 4.502 0 01-4.5 4.494zm0-7.63a3.142 3.142 0 00-3.14 3.136 3.142 3.142 0 003.14 3.136 3.142 3.142 0 003.14-3.136 3.142 3.142 0 00-3.14-3.136z" fill="#7681A0"/><path d="M30.794 14.14c-7.19-7.182-18.502-7.532-25.272-.77-6.77 6.761-6.42 18.06.771 25.241 2.663 2.66 5.901 4.383 9.265 5.153l20.394-20.37c-.757-3.36-2.48-6.595-5.158-9.254z" fill="#fff"/><path d="M15.782 44.505l-.364-.084c-3.602-.826-6.924-2.674-9.587-5.334-7.457-7.434-7.807-19.194-.785-26.208 7.022-7 18.782-6.664 26.238.784 2.678 2.674 4.514 5.978 5.34 9.576l.085.364-20.927 20.902zM17.45 9.197c-4.219 0-8.34 1.54-11.451 4.648-6.476 6.482-6.14 17.374.785 24.29 2.397 2.394 5.354 4.088 8.578 4.886l19.861-19.838c-.813-3.206-2.495-6.16-4.892-8.568-3.616-3.598-8.297-5.418-12.88-5.418zm11.583 26.747l-.961.96 9.366 9.355.961-.96-9.366-9.355z" fill="#7681A0"/><path d="M38.671 44.562l2.888 2.884a1.35 1.35 0 010 1.918 1.355 1.355 0 01-1.92 0L36.75 46.48a1.35 1.35 0 010-1.918 1.355 1.355 0 011.92 0z" fill="#fff"/><path d="M40.591 50.428a2.029 2.029 0 01-1.443-.602l-2.888-2.884a2.035 2.035 0 010-2.884 2.036 2.036 0 011.444-.588c.547 0 1.051.21 1.444.588l2.887 2.884c.379.378.589.896.589 1.442 0 .546-.21 1.05-.589 1.442a1.983 1.983 0 01-1.444.602zm-2.873-5.586a.67.67 0 00-.477.196.684.684 0 000 .966l2.888 2.884c.266.266.7.266.967 0a.666.666 0 00.196-.476c0-.182-.07-.35-.196-.476l-2.887-2.884a.68.68 0 00-.491-.21zM15.825 39.06a.684.684 0 11-.968 0 .687.687 0 01.968 0zm2.41-2.395a.684.684 0 11-.968.966.684.684 0 01.968-.966zm2.397-2.393a.684.684 0 11-.968.966.684.684 0 01.968-.966zm1.92-1.261a.672.672 0 10.001-1.344.672.672 0 000 1.344zm2.398-2.394a.672.672 0 100-1.344.672.672 0 000 1.344zm2.887-3.555a.684.684 0 11-.968 0 .714.714 0 01.968 0zm1.92-1.245a.672.672 0 100-1.345.672.672 0 000 1.345zm2.887-3.543a.684.684 0 11-.968.966.684.684 0 01.968-.966zM12.825 38.458a.684.684 0 11-.967 0 .713.713 0 01.967 0zm1.92-1.246a.672.672 0 100-1.345.672.672 0 000 1.345zm2.888-3.542a.684.684 0 11-.969.965.684.684 0 01.969-.966zm1.92-1.246a.672.672 0 100-1.345.672.672 0 000 1.345zm2.887-3.556a.684.684 0 11-.968.966.684.684 0 01.968-.966zm1.92-1.247a.672.672 0 10.001-1.344.672.672 0 000 1.344zm2.874-3.555a.684.684 0 11-.967 0c.28-.266.7-.266.967 0zm2.411-2.394a.684.684 0 11-.969.966.684.684 0 01.969-.966zm2.396-2.408a.684.684 0 11-.967 0 .713.713 0 01.967 0zM12.222 35.462a.684.684 0 11-.967 0 .686.686 0 01.967 0zm-2.873 3.556a.672.672 0 100-1.345.672.672 0 000 1.345zm4.794-4.802a.672.672 0 100-1.345.672.672 0 000 1.345zm2.41-2.394a.672.672 0 10.001-1.345.672.672 0 000 1.345zm2.874-3.556a.684.684 0 11-.968 0 .687.687 0 01.968 0zm2.41-2.394a.684.684 0 11-.968.966.684.684 0 01.968-.966zm2.397-2.408a.684.684 0 11-.968.966.684.684 0 01.968-.966zm2.397-2.394a.684.684 0 11-.967 0c.28-.266.715-.266.967 0zm1.934-1.246a.672.672 0 10.001-1.345.672.672 0 000 1.345zM8.984 34.622a.684.684 0 11-.968.966.684.684 0 01.968-.966zm1.921-1.245a.672.672 0 100-1.345.672.672 0 000 1.345zm2.397-2.396a.672.672 0 100-1.345.672.672 0 000 1.345zm2.41-2.407a.672.672 0 10.001-1.345.672.672 0 000 1.345zm2.874-3.542a.684.684 0 11-.968 0 .687.687 0 01.968 0zm2.411-2.407a.684.684 0 11-.969.966.684.684 0 01.969-.966zm2.396-2.395a.684.684 0 11-.968.965.684.684 0 01.968-.966zm1.921-1.246a.672.672 0 100-1.345.672.672 0 000 1.345zM8.382 31.626a.684.684 0 11-.968.966.684.684 0 01.968-.966zM5.985 34.02a.684.684 0 11-.967 0 .713.713 0 01.967 0zm4.794-4.788a.684.684 0 11-.968 0 .687.687 0 01.968 0zm2.411-2.408a.684.684 0 11-.969.966.684.684 0 01.968-.966zm2.396-2.394a.684.684 0 11-.967 0 .684.684 0 01.967 0zm1.92-1.246a.672.672 0 10.001-1.344.672.672 0 000 1.344zm2.888-3.556a.684.684 0 11-.968.966.684.684 0 01.968-.966zm2.396-2.393a.684.684 0 11-.966 0c.28-.266.7-.266.967 0zm2.411-2.409a.684.684 0 11-.967 0 .713.713 0 01.967 0zM5.382 31.024a.684.684 0 11-.968.966.684.684 0 01.968-.966zm1.921-1.246a.672.672 0 100-1.345.672.672 0 000 1.345zm2.887-3.557a.684.684 0 11-.967 0 .713.713 0 01.967 0zm1.92-1.245a.672.672 0 10.001-1.344.672.672 0 000 1.344zm2.873-3.541a.684.684 0 11-.967 0 .686.686 0 01.967 0zm1.921-1.247a.672.672 0 100-1.345.672.672 0 000 1.345zm2.411-2.408a.672.672 0 100-1.345.672.672 0 000 1.345zm2.396-2.394a.672.672 0 10.001-1.344.672.672 0 000 1.344zm6.013 1.204a.672.672 0 10.001-1.345.672.672 0 000 1.345zm-3.125-4.76a.684.684 0 11-.969.966.684.684 0 01.969-.966zM4.177 25.032a.684.684 0 11-.968.966.684.684 0 01.968-.966zm2.397-2.407a.684.684 0 11-.968 0c.28-.266.715-.266.968 0zm2.41-2.395a.684.684 0 11-.968.965.684.684 0 01.968-.966zm1.921-1.246a.672.672 0 100-1.345.672.672 0 000 1.345zm2.397-2.394a.672.672 0 100-1.345.672.672 0 000 1.345zm2.887-3.556a.684.684 0 11-.968.966.684.684 0 01.968-.966zM5.382 16.632a.684.684 0 11-.968.966.684.684 0 01.968-.966zm1.921-1.246a.672.672 0 100-1.344.672.672 0 000 1.344zm2.887-3.556a.684.684 0 11-.968.966.684.684 0 01.968-.966zm8.396-1.19a.684.684 0 11-.968 0 .687.687 0 01.968 0zM4.303 29.177a.672.672 0 100-1.345.672.672 0 000 1.345zM6.7 26.782a.672.672 0 100-1.345.672.672 0 000 1.345zm2.397-2.395a.672.672 0 100-1.344.672.672 0 000 1.345zm2.887-3.555a.684.684 0 11-.968.966.684.684 0 01.968-.966zm2.396-2.394a.684.684 0 11-.966 0c.28-.266.714-.266.967 0zm2.412-2.408a.684.684 0 11-.969.965.684.684 0 01.969-.966zm2.396-2.394a.684.684 0 11-.967 0 .686.686 0 01.967 0zM.7 25.578a.672.672 0 10.002-1.345.672.672 0 00-.001 1.345zm2.874-3.543a.684.684 0 11-.967 0c.28-.266.7-.266.967 0zm2.411-2.407a.684.684 0 11-.968.966.684.684 0 01.968-.966zm1.92-1.246a.672.672 0 10.001-1.345.672.672 0 000 1.345zm2.874-3.556a.684.684 0 11-.968 0 .714.714 0 01.968 0zm1.92-1.246a.672.672 0 100-1.345.672.672 0 000 1.345zm2.411-2.393a.672.672 0 100-1.345.672.672 0 000 1.345zm5.999 1.203a.672.672 0 100-1.345.672.672 0 000 1.345z" fill="#7681A0"/></svg>