<svg width="50" height="50" fill="none" xmlns="http://www.w3.org/2000/svg"><path d="M7.34 39.012c.06.06.182.06.243.06.243 0 .486-.121.546-.364l3.038-7.048h.304a3.721 3.721 0 003.16-1.762l2.612-4.254c.304.122.608.183.912.183a2.62 2.62 0 001.883-.79l4.922-4.922c.73-.729.972-1.823.608-2.795l4.253-2.613a3.706 3.706 0 001.762-3.463l7.048-3.038c.304-.121.425-.486.304-.79-1.215-2.977-3.038-4.739-5.165-4.982a4.48 4.48 0 00-1.762.182L28.545 3.65l-.669-1.519c-.303-.729-.91-1.276-1.762-1.701-1.519-.668-3.28-.547-4.8.304L16.09 3.77c-.304-.304-.668-.608-1.215-.79-1.64-.669-3.463-.547-5.043.304l-.061.06c-.182.122-.425.243-.608.365-.121.06-.182.182-.303.243-.122.121-.244.182-.304.243L4.302 8.449c-.122.122-.183.243-.304.365l-.243.243a5.31 5.31 0 00-.365.607s0 .061-.06.061c-.851 1.52-1.034 3.403-.304 5.043.243.486.486.912.79 1.215L.776 21.21c-.911 1.519-1.033 3.342-.303 4.8.425.911.972 1.458 1.7 1.823l1.52.668-1.033 3.463c-.182.608-.243 1.216-.182 1.762.121 2.249 1.883 4.071 4.86 5.287zM4.788 9.907l.364-.364L9.405 5.29a4.507 4.507 0 013.22-1.337c.487 0 .973.06 1.398.243.608.182.972.425 1.215.73l.061.12c0 .061 0 .061.06.122l5.287 7.352 3.585 5.043c.425.547.364 1.337-.182 1.884l-4.861 4.86c-.486.487-1.276.548-1.884.183l-4.982-3.524-7.413-5.347s-.06 0-.121-.06l-.122-.062c-.304-.243-.547-.607-.73-1.215a4.374 4.374 0 01.73-4.132.648.648 0 01.122-.243zm27.585-6.015c.486-.121.911-.182 1.276-.121 1.944.182 3.22 2.187 3.95 3.645l-6.32 2.674-2.248-5.226 3.342-.972zM21.86 1.887c1.155-.668 2.552-.79 3.707-.243.607.304.972.608 1.154 1.094l3.403 7.899c.486 1.154.06 2.49-.973 3.098L24.9 16.348 16.757 4.864l5.104-2.977zM1.507 25.705C.96 24.551 1.08 23.153 1.75 22l2.977-5.104 11.423 8.142-2.613 4.253c-.668 1.033-2.005 1.458-3.099.972L2.54 26.86c-.364-.183-.729-.547-1.032-1.155zm2.248 6.745l1.033-3.342 5.225 2.248-2.673 6.258c-1.459-.668-3.464-1.944-3.646-3.95-.122-.303-.06-.728.06-1.215zM47.93 22.108l-1.519-.669 1.033-3.463a4.48 4.48 0 00.182-1.762c-.243-2.127-2.005-3.95-4.982-5.165-.304-.122-.668 0-.79.303l-3.038 7.05a3.706 3.706 0 00-3.463 1.761l-2.613 4.254a2.644 2.644 0 00-2.795.608l-4.922 4.922a2.645 2.645 0 00-.607 2.795l-4.253 2.613a3.706 3.706 0 00-1.762 3.463l-7.049 3.038c-.303.122-.425.487-.303.79 1.215 2.978 3.038 4.74 5.164 4.983h.365c.425 0 .911-.06 1.337-.243l3.463-1.033.668 1.52c.304.728.912 1.275 1.823 1.7.668.305 1.337.426 2.066.426.911 0 1.884-.243 2.734-.79l5.225-3.038c.304.304.669.608 1.216.79.668.304 1.397.425 2.126.425a5.892 5.892 0 004.132-1.701l4.253-4.254c.122-.121.182-.243.304-.304l.243-.243a5.31 5.31 0 00.365-.607s0-.061.06-.061c.851-1.52 1.033-3.403.304-5.044-.243-.486-.486-.911-.79-1.215l3.038-5.226c.912-1.519 1.033-3.342.304-4.8-.243-.912-.79-1.52-1.519-1.823zm-5.164-9.662c1.458.669 3.463 1.945 3.645 3.95.06.365 0 .79-.121 1.276l-1.033 3.342-5.226-2.248 2.735-6.32zM17.672 46.233c-.486.121-.91.182-1.275.121-1.945-.182-3.22-2.187-3.95-3.646l6.32-2.673 2.247 5.225-3.341.973zm10.451 2.005c-1.154.668-2.552.79-3.706.243-.608-.304-.972-.608-1.155-1.094l-3.402-7.9c-.486-1.154-.06-2.49.972-3.098l4.253-2.613L33.227 45.2l-5.104 3.038zm12.517-3.403l-.365.365c-.06 0-.06.06-.121.121a4.605 4.605 0 01-4.132.73c-.608-.183-.972-.426-1.215-.73l-.06-.121c0-.061 0-.061-.062-.122L29.4 37.665l-3.585-5.044c-.425-.547-.364-1.337.183-1.884l4.86-4.86a1.423 1.423 0 011.033-.426c.304 0 .608.06.851.243l4.922 3.524 7.473 5.348c.06 0 .06.06.122.06l.06.061c.304.243.547.608.73 1.216a4.374 4.374 0 01-.73 4.132c0 .06-.06.06-.06.121l-.365.365-4.253 4.314zm7.595-16.71l-2.977 5.104-11.423-8.203 2.612-4.254c.669-1.033 2.005-1.458 3.1-.972l7.898 3.403c.486.182.79.547 1.094 1.154.486 1.155.425 2.552-.304 3.768z" fill="#7681A0"/></svg>