<svg width="54" height="46" fill="none" xmlns="http://www.w3.org/2000/svg"><path d="M43.732 22.34c0 8.995-5.475 16.688-13.214 19.852-2.417.961-5.017 1.52-7.77 1.52a20.42 20.42 0 01-11.5-3.506L1 44.24l3.976-10.515c-2.018-3.32-3.211-7.196-3.211-11.384C1.765 10.553 11.155 1 22.748 1c8.87 0 16.457 5.614 19.515 13.524a21.372 21.372 0 011.469 7.816z" stroke="#7681A0" stroke-width="1.6" stroke-miterlimit="10" stroke-linecap="round" stroke-linejoin="round"/><path d="M12.41 25.287c1.604 0 2.905-1.32 2.905-2.947s-1.3-2.947-2.906-2.947c-1.604 0-2.905 1.32-2.905 2.947s1.3 2.947 2.905 2.947zm10.338 0c1.605 0 2.906-1.32 2.906-2.947s-1.3-2.947-2.906-2.947c-1.605 0-2.906 1.32-2.906 2.947s1.301 2.947 2.906 2.947zm10.339 0c1.605 0 2.906-1.32 2.906-2.947s-1.301-2.947-2.906-2.947c-1.605 0-2.906 1.32-2.906 2.947s1.301 2.947 2.906 2.947zM53 44.239l-7.341-2.823a14.949 14.949 0 01-8.228 2.45c-2.478 0-4.833-.589-6.883-1.675 7.74-3.132 13.214-10.856 13.214-19.851 0-2.76-.52-5.397-1.468-7.817A15.069 15.069 0 0152.48 28.792c0 2.946-.856 5.676-2.294 8.002L53 44.24z" stroke="#7681A0" stroke-width="1.6" stroke-miterlimit="10" stroke-linecap="round" stroke-linejoin="round"/></svg>