<svg width="49" height="50" fill="none" xmlns="http://www.w3.org/2000/svg"><path d="M29.177 16.167a6.888 6.888 0 00-4.7 1.832 6.929 6.929 0 00-9.598 9.988l8.396 8.397c.32.325.756.51 1.211.513a1.699 1.699 0 001.212-.513l8.37-8.381a6.929 6.929 0 00-4.896-11.836h.005zm3.804 10.747l-8.377 8.382a.175.175 0 01-.24 0l-8.392-8.392a5.389 5.389 0 117.616-7.622l.344.344a.796.796 0 001.088 0l.339-.338a5.391 5.391 0 017.622 7.626zm15.243-4.254a3.926 3.926 0 00-1.293-5.744l-1.089-.595a2.387 2.387 0 01-1.2-2.515l.22-1.221a3.921 3.921 0 00-3.66-4.614l-1.241-.067a2.381 2.381 0 01-2.171-1.745l-.334-1.175a3.926 3.926 0 00-5.281-2.567l-1.145.478a2.387 2.387 0 01-2.715-.626l-.821-.935A3.926 3.926 0 0024.554 0c-1.123 0-2.191.48-2.937 1.319l-.847.919a2.381 2.381 0 01-2.715.61l-1.144-.482a3.926 3.926 0 00-5.312 2.54l-.339 1.196a2.382 2.382 0 01-2.18 1.725l-1.242.062a3.916 3.916 0 00-3.742 3.916c0 .227.019.453.057.677l.215 1.227a2.387 2.387 0 01-1.216 2.504l-1.088.575A3.926 3.926 0 00.74 22.536l.723 1.027a2.387 2.387 0 010 2.787l-.728 1.026a3.926 3.926 0 001.288 5.702l1.088.596a2.381 2.381 0 011.2 2.515l-.22 1.221a3.921 3.921 0 003.66 4.614l1.242.067a2.382 2.382 0 012.17 1.74l.334 1.185a3.926 3.926 0 005.281 2.567l1.145-.478a2.387 2.387 0 012.715.627l.821.934A3.926 3.926 0 0024.4 50c1.122 0 2.19-.48 2.936-1.319l.826-.929a2.382 2.382 0 012.715-.61l1.145.482a3.926 3.926 0 005.312-2.54l.339-1.197a2.386 2.386 0 012.201-1.714l1.242-.056a3.921 3.921 0 003.685-4.594l-.22-1.232a2.387 2.387 0 011.216-2.504l1.093-.575a3.927 3.927 0 001.325-5.748l-.724-1.027a2.387 2.387 0 010-2.787l.734-.99zm-1.247-.904l-.73 1.027a3.926 3.926 0 000 4.583l.724 1.026c.29.403.447.886.447 1.381a2.386 2.386 0 01-1.252 2.104l-1.093.59a3.921 3.921 0 00-2.002 4.107l.21 1.221a2.381 2.381 0 01-2.238 2.792l-1.242.057a3.927 3.927 0 00-3.592 2.848l-.339 1.196a2.386 2.386 0 01-3.228 1.54l-1.145-.483a3.921 3.921 0 00-4.47 1.027l-.826.929a2.386 2.386 0 01-1.786.8 2.386 2.386 0 01-1.787-.81l-.82-.935a3.926 3.926 0 00-4.466-1.026l-1.144.477a2.387 2.387 0 01-3.219-1.54l-.333-1.195a3.921 3.921 0 00-3.593-2.864l-1.242-.067a2.382 2.382 0 01-2.227-2.802l.22-1.222a3.921 3.921 0 00-1.976-4.131l-1.067-.657a2.387 2.387 0 01-.785-3.49l.728-1.027a3.926 3.926 0 000-4.583l-.723-1.027a2.386 2.386 0 01.806-3.485l1.093-.59a3.926 3.926 0 002.001-4.106l-.21-1.221a2.381 2.381 0 012.238-2.792l1.242-.062a3.921 3.921 0 003.592-2.848l.34-1.196a2.386 2.386 0 013.228-1.54l1.144.483a3.921 3.921 0 004.47-1.027l.827-.929a2.36 2.36 0 011.79-.8 2.386 2.386 0 011.782.851l.821.934a3.921 3.921 0 004.465 1.027l1.145-.477a2.387 2.387 0 013.218 1.54l.333 1.195A3.921 3.921 0 0039.9 9.43l1.242.066a2.382 2.382 0 012.228 2.802l-.221 1.222a3.931 3.931 0 001.976 4.136l1.088.596a2.391 2.391 0 011.221 2.13 2.36 2.36 0 01-.456 1.38v-.005z" fill="#7681A0"/></svg>