<svg width="34" height="34" fill="none" xmlns="http://www.w3.org/2000/svg"><circle cx="17" cy="17" r="17" fill="#fff"/><path d="M23.355 14.24c.01.141.01.283.01.425 0 4.335-3.299 9.33-9.33 9.33A9.267 9.267 0 019 22.523c.264.03.518.04.792.04a6.567 6.567 0 004.07-1.4 3.285 3.285 0 01-3.065-2.274c.203.03.406.05.62.05.294 0 .588-.04.862-.111a3.28 3.28 0 01-2.63-3.218v-.041a3.3 3.3 0 001.483.416 3.277 3.277 0 01-1.462-2.73c0-.61.162-1.168.447-1.655a9.32 9.32 0 006.761 3.43 3.705 3.705 0 01-.081-.75 3.278 3.278 0 013.28-3.28 3.27 3.27 0 012.395 1.036 6.455 6.455 0 002.081-.792 3.27 3.27 0 01-1.441 1.807c.66-.07 1.3-.254 1.888-.507a7.048 7.048 0 01-1.645 1.695z" fill="#7681A0"/></svg>