<svg width="23" height="25" fill="none" xmlns="http://www.w3.org/2000/svg"><path d="M22.304 12.444c0-.335-.08-.65-.214-.936-.894-2.884-5.08-2.673-11.033-2.814-.995-.023-.426-1.199-.076-3.779.227-1.678-.855-4.254-2.674-4.254-2.998 0-.114 2.365-2.765 8.214C4.125 12.001.959 10.25.959 13.39v7.146c0 1.222.12 2.397 1.838 2.59 1.666.188 1.292 1.375 3.695 1.375h12.03a2.225 2.225 0 002.221-2.223c0-.508-.178-.97-.465-1.345.68-.38 1.147-1.1 1.147-1.933a2.2 2.2 0 00-.464-1.343c.682-.38 1.15-1.1 1.15-1.934 0-.606-.246-1.155-.641-1.557a2.207 2.207 0 00.834-1.721z" fill="#FFDB5E"/></svg>