<svg width="24" height="25" fill="none" xmlns="http://www.w3.org/2000/svg"><g clip-path="url(#clip0)"><path d="M22.667 11.167c0 5.889-4.778 10.666-10.667 10.666-5.89 0-10.667-4.777-10.667-10.666C1.333 5.276 6.11.5 12 .5s10.667 4.776 10.667 10.667z" fill="#FFCC4D"/><path d="M17.24 11.253a.248.248 0 00-.356-.02c-.022.02-2.202 1.934-4.884 1.934-2.675 0-4.862-1.914-4.884-1.934a.25.25 0 00-.357.02.38.38 0 00-.052.418c.072.144 1.806 3.496 5.293 3.496s5.222-3.352 5.293-3.496a.38.38 0 00-.052-.418z" fill="#664500"/><path d="M8.929 15.936l-1.026-1.48s-.362-.577-.941-.216c-.578.36-.216.94-.216.94l1.172 2.253s.096.512-.612-.061c-.309-.25-.131-.109-.131-.109l-.294-.24-3.66-3.006s-.473-.498-.906.028c-.432.528.148.894.148.894l3.462 2.844c-.08.08-.321.356-.4.442l-3.704-3.04s-.474-.5-.906.028c-.433.527.148.894.148.894l3.704 3.04c-.069.094-.242.318-.306.41l-3.195-2.622s-.473-.5-.905.028c-.434.527.148.894.148.894l3.396 2.79c-.043.118-.242.43-.274.546l-2.448-2.008s-.472-.501-.904.028c-.434.527.148.894.148.894l3.953 3.245.263.217a4.093 4.093 0 005.6-5.945c-.486-.521-.906-1.102-1.314-1.688zm14.793 3.277c-.432-.528-.905-.027-.905-.027l-2.448 2.008c-.031-.116-.23-.429-.273-.547l3.396-2.79s.582-.366.149-.894c-.432-.526-.906-.028-.906-.028l-3.194 2.623c-.064-.093-.238-.317-.306-.41l3.703-3.04s.582-.367.149-.895c-.432-.526-.905-.027-.905-.027l-3.705 3.04c-.078-.086-.32-.362-.4-.442l3.462-2.844s.58-.367.148-.894c-.433-.527-.906-.028-.906-.028l-3.66 3.005-.293.24s.66-.56-.131.11c-.792.669-.612.06-.612.06l1.172-2.253s.362-.579-.216-.94c-.58-.36-.941.217-.941.217l-1.025 1.48c-.409.586-.83 1.166-1.316 1.688a4.093 4.093 0 005.6 5.946l.264-.218 3.954-3.245c-.004 0 .578-.367.145-.895z" fill="#F4900C"/><path d="M18.451 7.822c-.034-.081-.856-1.989-2.547-1.989-1.69 0-2.512 1.908-2.546 1.989a.312.312 0 00.082.357c.1.086.243.088.349.008.006-.006.72-.544 2.115-.544 1.386 0 2.1.532 2.116.544a.275.275 0 00.348-.006.312.312 0 00.083-.36zm-7.333 0c-.035-.081-.857-1.989-2.547-1.989-1.69 0-2.512 1.908-2.547 1.989a.312.312 0 00.083.357c.1.086.244.088.348.008.008-.006.721-.544 2.116-.544 1.386 0 2.099.532 2.115.544a.276.276 0 00.348-.006.313.313 0 00.084-.36z" fill="#664500"/><path d="M7.455 17.485s-1.73 2.21.322 4.974c.142.19.5.097.348-.126-.167-.242-1.834-2.597-.267-4.704 0 0-.254-.032-.403-.144zm9.055.066s1.73 2.209-.323 4.973c-.141.19-.5.097-.347-.125.167-.243 1.833-2.598.267-4.705-.001 0 .254-.03.403-.143z" fill="#B55005"/></g><defs><clipPath id="clip0"><path fill="#fff" transform="translate(0 .5)" d="M0 0h24v24H0z"/></clipPath></defs></svg>