<svg width="24" height="25" fill="none" xmlns="http://www.w3.org/2000/svg"><g clip-path="url(#clip0)"><path d="M24 12.5c0 6.627-5.373 12-12 12s-12-5.373-12-12S5.373.5 12 .5s12 5.373 12 12z" fill="#FFCC4D"/><path d="M12 14.5c-2.415 0-4.018-.281-6-.667-.453-.087-1.333 0-1.333 1.334 0 2.666 3.063 6 7.333 6s7.333-3.334 7.333-6c0-1.334-.88-1.422-1.333-1.334-1.982.386-3.585.667-6 .667z" fill="#664500"/><path d="M6 15.167s2 .666 6 .666 6-.666 6-.666-1.333 2.666-6 2.666-6-2.666-6-2.666z" fill="#fff"/><path d="M10.455 3.442l-3.028.534-1.56-2.835a.835.835 0 00-1.554.274l-.497 3.198-3.028.534A.834.834 0 00.576 6.72l2.713 1.288-.498 3.208a.835.835 0 001.417.713l2.341-2.374 3.012 1.43a.834.834 0 001.088-1.154L9.083 6.987l2.11-2.139a.834.834 0 00-.738-1.406zm3.09 0l3.028.534 1.56-2.835a.835.835 0 011.554.274l.496 3.198 3.028.534a.834.834 0 01.212 1.573L20.71 8.008l.499 3.208a.835.835 0 01-1.418.713L17.45 9.555l-3.012 1.43a.834.834 0 01-1.087-1.154l1.565-2.844-2.11-2.139a.834.834 0 01.74-1.406z" fill="#E95F28"/></g><defs><clipPath id="clip0"><path fill="#fff" transform="translate(0 .5)" d="M0 0h24v24H0z"/></clipPath></defs></svg>