<svg width="24" height="24" fill="none" xmlns="http://www.w3.org/2000/svg"><path d="M23.333 12.413a4.58 4.58 0 00-4.579-4.58c-.653 0-1.835.386-1.835.386l-8.75.922S6.357 8.087 5.247 8.087A4.58 4.58 0 00.69 13.135C.937 19.175 5.9 24 12 24c6.26 0 11.333-5.074 11.333-11.333 0-.035-.006-.068-.008-.102.002-.051.008-.101.008-.152z" fill="#FFCB4C"/><path d="M20.084 9.167c-.627-.162-.673.258-1.468.164-.779-.09.286-.492-.13-.728-.14-.079-.34-.096-.588-.065-.701.086-11.303.363-11.698.553-.351.17-.56.366-.879.068-.402-.375-.977-.159-1.144-.034-.214.161-.259.481.156.851.414.28 1.116.573 2.31.773.132.022.244.03.348.034.818.028.932-1.113 2.087-1.144.757-.02 7.435.714 7.985.64.068-.01.138-.017.22-.017 1.042 0 1.284.967 2.392.21.47-.381 1.208-1.098.409-1.305z" fill="#F19020"/><path d="M3.959 6.077A13.43 13.43 0 016.2 9.092c.377.686.637 1.286.791 1.692.818.027.932-.447 2.087-.477.757-.02 1.189.512 1.749.819 1.001.548 1.712-.487 2.479-.487.567 0 1.48.805 2.117.51.925-.429 1.09-.794 1.64-.87.215-.527.494-1.13.835-1.739.493-.883 1.119-1.777 1.894-2.462H3.959v-.001z" fill="#F36C24"/><path d="M19.537 6.29c.854-.842-15.359.01-14.894.525.659.73 1.467 2.102 1.467 2.102s3.171 1.604 5.567-.417c1.667 1 4 .646 5.042-1.073 0 0 .811.302 1.634.354 0 0 .635-.95 1.184-1.491z" fill="#CE5C1F"/><path d="M12 22.392c1.595 0 2.888-1.477 2.888-3.3 0-1.822-1.293-3.3-2.888-3.3s-2.888 1.478-2.888 3.3c0 1.823 1.293 3.3 2.888 3.3zm-2.667-8.655c0 .982-.597 1.778-1.333 1.778-.737 0-1.333-.796-1.333-1.778S7.263 11.96 8 11.96c.736 0 1.333.796 1.333 1.778zm8 0c0 .982-.596 1.778-1.333 1.778s-1.333-.796-1.333-1.778.597-1.778 1.333-1.778c.737 0 1.333.796 1.333 1.778z" fill="#65471B"/><path d="M20.75 2.483c-.16 0-.311.03-.457.073a2.485 2.485 0 00-1.932-.93c-.058 0-.113.013-.17.017a2.656 2.656 0 00-1.992-.906 2.66 2.66 0 00-2.324 1.377 1.49 1.49 0 00-2.55-.328A2.492 2.492 0 008.972.098c-.882 0-1.653.46-2.099 1.149a2.377 2.377 0 00-.373-.04 2.49 2.49 0 00-2.195 1.329 2.251 2.251 0 00-.416-.042 2.25 2.25 0 100 4.5c.392 0 .756-.106 1.076-.283a1.448 1.448 0 001.178.275A3.217 3.217 0 008.882 8.52c1.14 0 2.137-.59 2.715-1.478a2.6 2.6 0 002.02.972 2.61 2.61 0 002.517-1.941c.023 0 .043.007.066.007.189 0 .373-.021.55-.058.437.37.995.602 1.612.602.783 0 1.473-.367 1.931-.93.146.042.298.072.458.072a1.642 1.642 0 10-.001-3.284z" fill="#CCD6DD"/><path d="M18.53 5.259a1.414 1.414 0 100-2.828 1.414 1.414 0 000 2.828zm-5.28-1.324a1.44 1.44 0 00-1.44-1.44c-.245 0-.473.067-.675.175A1.11 1.11 0 009.2 2.466a2.487 2.487 0 00-1.7-.675c-1.17 0-2.144.806-2.417 1.892a1.342 1.342 0 10.167 1.681A2.493 2.493 0 007.083 6.75a1.493 1.493 0 002.754-.423c.216.12.46.194.724.194.714 0 1.308-.499 1.46-1.166a1.437 1.437 0 001.23-1.42z" fill="#E1E8ED"/></svg>